:FULLY-SPECIFIED
:FORCE-ALL-JOINTS-BE-3DOF
:DEGREES
1053
root 1.21068 15.1641 32.5681 4.9181 -3.44588 3.33818
lfemur 8.3829 0.543574 5.58312
ltibia 0.981864 -0 0
lfoot -30.8829 -10.9044 -0.000254515
ltoes -34.3469 0 0
rfemur -30.9352 -15.5923 -6.21807
rtibia 49.8712 -0 0
rfoot -21.9388 5.33331 0.000295349
rtoes -41.1331 0 0
lowerback -1.84144 -0.0703109 -0.206896
upperback -0.503191 -0.0580533 -5.93187
thorax 0.509918 -0.0311846 -6.03079
lowerneck -7.07858 0.755101 6.39587
upperneck 1.38309 0.323098 3.68011
head 1.63821 0.291585 0.0858496
lclavicle 1.06818e-14 -2.15777e-14 2.76596e-31
lhumerus -58.4982 -46.6591 115.357
lradius 55.7319 -0 0
lwrist 25.479 0 0
lhand 37.468 25.2557 0.000124204
lfingers 7.12502 -0 0
lthumb 60.2651 38.7543 3.12894e-05
rclavicle 1.06818e-14 -2.15777e-14 2.76596e-31
rhumerus 2.20592 -23.4316 0.570447
rradius 27.5417 -0 0
rwrist -9.56384 0 0
rhand -30.6749 -42.1395 -9.2694e-06
rfingers 7.12502 -0 0
rthumb -3.96913 -72.0821 -8.98377e-06
1054
root 1.21332 15.1643 32.5731 4.92213 -3.44797 3.3311
lfemur 8.37747 0.548658 5.57357
ltibia 1.02533 -0 0
lfoot -30.9152 -10.8996 -0.000233994
ltoes -34.3437 0 0
rfemur -30.9107 -15.5766 -6.22746
rtibia 49.8561 -0 0
rfoot -21.926 5.34731 0.000271536
rtoes -41.0892 0 0
lowerback -1.85722 -0.0686064 -0.224162
upperback -0.502264 -0.0548297 -5.92959
thorax 0.520112 -0.0294264 -6.01844
lowerneck -7.07341 0.749248 6.39739
upperneck 1.36887 0.316192 3.68474
head 1.63253 0.287689 0.086773
lclavicle 1.10447e-14 -2.20401e-14 2.54296e-31
lhumerus -58.4895 -46.6616 115.358
lradius 55.7312 -0 0
lwrist 25.4893 0 0
lhand 37.4756 25.2656 0.00011419
lfingers 7.12502 -0 0
lthumb 60.2716 38.7572 2.87667e-05
rclavicle 1.10447e-14 -2.20401e-14 2.54296e-31
rhumerus 2.18412 -23.4135 0.585146
rradius 27.5402 -0 0
rwrist -9.54074 0 0
rhand -30.6751 -42.1154 -8.52206e-06
rfingers 7.12502 -0 0
rthumb -3.96936 -72.0579 -8.25945e-06
1055
root 1.21585 15.1645 32.5778 4.926 -3.44997 3.32431
lfemur 8.37226 0.553536 5.5644
ltibia 1.06705 -0 0
lfoot -30.9461 -10.895 -0.000211769
ltoes -34.3406 0 0
rfemur -30.8872 -15.5615 -6.23646
rtibia 49.8416 -0 0
rfoot -21.9137 5.36075 0.000245746
rtoes -41.047 0 0
lowerback -1.87236 -0.0669753 -0.240731
upperback -0.501374 -0.0517364 -5.92741
thorax 0.529893 -0.0277414 -6.00659
lowerneck -7.06846 0.743631 6.39884
upperneck 1.35522 0.309566 3.68919
head 1.62707 0.283951 0.0876595
lclavicle 1.1393e-14 -2.24839e-14 2.30142e-31
lhumerus -58.4811 -46.6641 115.359
lradius 55.7306 -0 0
lwrist 25.4991 0 0
lhand 37.4829 25.2751 0.000103344
lfingers 7.12502 -0 0
lthumb 60.2779 38.76 2.60344e-05
rclavicle 1.1393e-14 -2.24839e-14 2.30142e-31
rhumerus 2.16321 -23.3961 0.599242
rradius 27.5387 -0 0
rwrist -9.51857 0 0
rhand -30.6753 -42.0922 -7.71262e-06
rfingers 7.12502 -0 0
rthumb -3.96958 -72.0347 -7.47496e-06
1056
root 1.21826 15.1647 32.5824 4.92969 -3.45188 3.31784
lfemur 8.3673 0.55818 5.55567
ltibia 1.10677 -0 0
lfoot -30.9755 -10.8906 -0.000188298
ltoes -34.3376 0 0
rfemur -30.8648 -15.5471 -6.24502
rtibia 49.8278 -0 0
rfoot -21.902 5.37355 0.000218509
rtoes -41.0069 0 0
lowerback -1.88678 -0.0654262 -0.25651
upperback -0.500527 -0.0487907 -5.92533
thorax 0.539208 -0.0261387 -5.99531
lowerneck -7.06374 0.738283 6.40023
upperneck 1.34223 0.303257 3.69342
head 1.62188 0.280391 0.088504
lclavicle 1.17246e-14 -2.29065e-14 2.04635e-31
lhumerus -58.4732 -46.6664 115.359
lradius 55.73 -0 0
lwrist 25.5085 0 0
lhand 37.4899 25.2841 9.18898e-05
lfingers 7.12502 -0 0
lthumb 60.2839 38.7627 2.31489e-05
rclavicle 1.17246e-14 -2.29065e-14 2.04635e-31
rhumerus 2.1433 -23.3795 0.612656
rradius 27.5374 -0 0
rwrist -9.49747 0 0
rhand -30.6755 -42.0701 -6.85779e-06
rfingers 7.12502 -0 0
rthumb -3.96978 -72.0126 -6.64647e-06
1057
root 1.22053 15.1649 32.5867 4.93316 -3.45368 3.31174
lfemur 8.36261 0.562563 5.54743
ltibia 1.14427 -0 0
lfoot -31.0033 -10.8865 -0.000164076
ltoes -34.3348 0 0
rfemur -30.8437 -15.5336 -6.2531
rtibia 49.8148 -0 0
rfoot -21.891 5.38563 0.000190401
rtoes -40.969 0 0
lowerback -1.90039 -0.0639675 -0.271405
upperback -0.499727 -0.0460101 -5.92336
thorax 0.548002 -0.0246274 -5.98465
lowerneck -7.05928 0.733234 6.40153
upperneck 1.32996 0.297302 3.69742
head 1.61698 0.27703 0.0893014
lclavicle 1.20376e-14 -2.33054e-14 1.78312e-31
lhumerus -58.4657 -46.6686 115.36
lradius 55.7295 -0 0
lwrist 25.5174 0 0
lhand 37.4965 25.2926 8.00696e-05
lfingers 7.12502 -0 0
lthumb 60.2895 38.7652 2.01712e-05
rclavicle 1.20376e-14 -2.33054e-14 1.78312e-31
rhumerus 2.12452 -23.3639 0.625312
rradius 27.5361 -0 0
rwrist -9.47754 0 0
rhand -30.6757 -42.0492 -5.97565e-06
rfingers 7.12502 -0 0
rthumb -3.96998 -71.9918 -5.79151e-06
1058
root 1.22266 15.1651 32.5907 4.93642 -3.45536 3.30603
lfemur 8.35824 0.566659 5.53973
ltibia 1.17931 -0 0
lfoot -31.0293 -10.8826 -0.000139631
ltoes -34.3322 0 0
rfemur -30.824 -15.5209 -6.26064
rtibia 49.8026 -0 0
rfoot -21.8807 5.39692 0.000162033
rtoes -40.9336 0 0
lowerback -1.91311 -0.0626076 -0.285323
upperback -0.498979 -0.0434119 -5.92153
thorax 0.556219 -0.0232168 -5.9747
lowerneck -7.05512 0.728516 6.40275
upperneck 1.3185 0.291739 3.70116
head 1.6124 0.27389 0.0900469
lclavicle 1.23301e-14 -2.36782e-14 1.51745e-31
lhumerus -58.4587 -46.6706 115.36
lradius 55.729 -0 0
lwrist 25.5257 0 0
lhand 37.5027 25.3006 6.81402e-05
lfingers 7.12502 -0 0
lthumb 60.2947 38.7676 1.71659e-05
rclavicle 1.23301e-14 -2.36782e-14 1.51745e-31
rhumerus 2.10697 -23.3492 0.637131
rradius 27.5349 -0 0
rwrist -9.45892 0 0
rhand -30.6759 -42.0297 -5.08534e-06
rfingers 7.12502 -0 0
rthumb -3.97016 -71.9723 -4.92864e-06
1059
root 1.22462 15.1652 32.5943 4.93942 -3.45692 3.30077
lfemur 8.3542 0.570438 5.53262
ltibia 1.21165 -0 0
lfoot -31.0533 -10.879 -0.00011551
ltoes -34.3298 0 0
rfemur -30.8058 -15.5091 -6.2676
rtibia 49.7914 -0 0
rfoot -21.8711 5.40734 0.000134043
rtoes -40.9009 0 0
lowerback -1.92486 -0.061355 -0.298172
upperback -0.498289 -0.0410135 -5.91983
thorax 0.563805 -0.0219158 -5.96551
lowerneck -7.05128 0.72416 6.40388
upperneck 1.30792 0.286604 3.70461
head 1.60817 0.270992 0.0907352
lclavicle 1.26002e-14 -2.40223e-14 1.25532e-31
lhumerus -58.4522 -46.6725 115.361
lradius 55.7285 -0 0
lwrist 25.5334 0 0
lhand 37.5083 25.3079 5.63694e-05
lfingers 7.12502 -0 0
lthumb 60.2996 38.7697 1.42006e-05
rclavicle 1.26002e-14 -2.40223e-14 1.25532e-31
rhumerus 2.09078 -23.3357 0.648036
rradius 27.5337 -0 0
rwrist -9.44173 0 0
rhand -30.6761 -42.0117 -4.20688e-06
rfingers 7.12502 -0 0
rthumb -3.97033 -71.9543 -4.07725e-06
1060
root 1.2264 15.1654 32.5977 4.94215 -3.45833 3.29598
lfemur 8.35052 0.573876 5.52615
ltibia 1.24107 -0 0
lfoot -31.0751 -10.8758 -9.22776e-05
ltoes -34.3276 0 0
rfemur -30.7893 -15.4985 -6.27393
rtibia 49.7811 -0 0
rfoot -21.8625 5.41682 0.000107083
rtoes -40.8712 0 0
lowerback -1.93554 -0.0602181 -0.309857
upperback -0.497661 -0.0388322 -5.91829
thorax 0.570704 -0.0207337 -5.95715
lowerneck -7.04778 0.720199 6.4049
upperneck 1.2983 0.281935 3.70775
head 1.60432 0.268355 0.0913614
lclavicle 1.28457e-14 -2.43353e-14 1.00284e-31
lhumerus -58.4464 -46.6742 115.361
lradius 55.728 -0 0
lwrist 25.5403 0 0
lhand 37.5135 25.3146 4.50319e-05
lfingers 7.12502 -0 0
lthumb 60.304 38.7717 1.13445e-05
rclavicle 1.28457e-14 -2.43353e-14 1.00284e-31
rhumerus 2.07605 -23.3235 0.65795
rradius 27.5327 -0 0
rwrist -9.4261 0 0
rhand -30.6762 -41.9954 -3.36075e-06
rfingers 7.12502 -0 0
rthumb -3.97048 -71.938 -3.25719e-06
1061
root 1.228 15.1655 32.6007 4.94458 -3.45959 3.2917
lfemur 8.34724 0.576943 5.52038
ltibia 1.26732 -0 0
lfoot -31.0946 -10.8729 -7.05001e-05
ltoes -34.3257 0 0
rfemur -30.7745 -15.489 -6.27957
rtibia 49.772 -0 0
rfoot -21.8548 5.42528 8.18116e-05
rtoes -40.8446 0 0
lowerback -1.94507 -0.0592053 -0.320287
upperback -0.497101 -0.0368854 -5.91692
thorax 0.576861 -0.0196796 -5.94969
lowerneck -7.04466 0.716664 6.40582
upperneck 1.28971 0.277768 3.71055
head 1.60089 0.266003 0.0919204
lclavicle 1.30649e-14 -2.46146e-14 7.66173e-32
lhumerus -58.4411 -46.6757 115.362
lradius 55.7277 -0 0
lwrist 25.5465 0 0
lhand 37.5181 25.3206 3.44044e-05
lfingers 7.12502 -0 0
lthumb 60.3079 38.7735 8.6672e-06
rclavicle 1.30649e-14 -2.46146e-14 7.66173e-32
rhumerus 2.06292 -23.3125 0.666794
rradius 27.5318 -0 0
rwrist -9.41215 0 0
rhand -30.6764 -41.9808 -2.56762e-06
rfingers 7.12502 -0 0
rthumb -3.97062 -71.9234 -2.4885e-06
